<?xml version="1.0" standalone="no"?>
<!DOCTYPE svg PUBLIC "-//W3C//DTD SVG 20010904//EN"
 "http://www.w3.org/TR/2001/REC-SVG-20010904/DTD/svg10.dtd">
<svg version="1.0" xmlns="http://www.w3.org/2000/svg"
 width="398.000000pt" height="398.000000pt" viewBox="0 0 398.000000 398.000000"
 preserveAspectRatio="xMidYMid meet">
<metadata>
Created by potrace 1.14, written by Peter Selinger 2001-2017
</metadata>
<g transform="translate(0.000000,398.000000) scale(0.100000,-0.100000)"
fill="#000000" stroke="none">
<path d="M1784 3759 c-100 -12 -214 -36 -230 -50 -19 -16 -18 -48 2 -56 9 -3
60 2 113 13 148 29 516 27 660 -4 546 -119 985 -464 1223 -962 51 -108 100
-256 130 -390 20 -93 23 -132 22 -340 0 -206 -3 -248 -22 -339 -133 -610 -567
-1102 -1143 -1295 -183 -61 -281 -77 -499 -83 -225 -6 -339 7 -530 62 -539
155 -982 582 -1156 1111 -68 208 -79 283 -79 544 0 207 3 247 23 338 75 341
224 622 455 859 l90 92 40 -21 c62 -31 161 -23 219 19 137 99 112 312 -44 377
-171 72 -346 -101 -283 -279 l14 -39 -87 -91 c-216 -224 -370 -492 -446 -775
-52 -195 -60 -262 -60 -480 0 -218 8 -286 60 -479 165 -614 672 -1111 1292
-1265 174 -43 238 -51 447 -50 222 0 302 11 510 71 141 40 362 144 486 229
346 235 612 595 724 981 55 191 69 293 69 508 1 208 -7 273 -50 447 -90 361
-299 694 -585 933 -337 281 -745 428 -1179 424 -63 -1 -147 -5 -186 -10z
m-719 -239 c54 -52 55 -122 2 -178 -74 -79 -217 -21 -217 88 0 114 133 169
215 90z"/>
<path d="M1780 3455 c-233 -35 -432 -112 -625 -240 -432 -288 -686 -787 -662
-1304 30 -666 480 -1226 1118 -1390 486 -126 981 -9 1364 321 98 84 107 93
188 195 149 186 244 392 299 647 32 148 31 436 -1 586 -123 563 -541 1005
-1086 1150 -184 48 -416 62 -595 35z m455 -89 c157 -29 308 -81 313 -107 1 -9
-30 -60 -69 -115 -103 -141 -124 -186 -124 -260 0 -75 28 -122 95 -158 63 -34
113 -44 287 -56 201 -13 282 -43 307 -114 3 -10 -3 -64 -15 -119 -33 -156 -14
-250 67 -330 82 -81 148 -92 237 -38 48 28 60 32 68 20 14 -22 10 -213 -5
-319 -13 -83 -50 -242 -62 -262 -3 -4 -28 4 -57 17 -28 14 -58 25 -66 25 -7 0
-72 28 -144 62 -153 72 -205 81 -320 53 -138 -33 -165 -65 -151 -174 5 -37 8
-113 8 -171 -1 -86 -6 -120 -28 -190 -31 -94 -43 -116 -117 -216 -28 -38 -65
-97 -82 -132 -26 -55 -29 -71 -24 -122 l5 -59 -31 -10 c-70 -23 -254 -43 -359
-39 -59 2 -110 6 -113 10 -11 11 15 49 89 133 39 44 74 82 77 85 4 3 12 25 19
49 10 39 9 47 -8 70 -36 49 -139 44 -346 -18 -163 -49 -189 -54 -225 -46 -32
7 -44 31 -72 140 -22 87 -90 143 -222 182 -26 8 -82 32 -122 54 -89 47 -182
73 -246 67 l-48 -5 -34 71 c-36 72 -89 223 -103 286 -4 19 -9 42 -11 50 -6 29
-14 76 -24 150 -19 131 5 422 34 433 15 5 284 -10 320 -18 91 -19 157 -71 157
-123 0 -15 -7 -52 -15 -82 -17 -64 -19 -188 -5 -242 23 -82 132 -178 203 -178
14 0 64 19 111 41 l86 41 138 2 138 1 50 37 c27 20 67 58 89 85 46 56 109 118
154 152 45 33 60 60 70 123 12 72 -4 144 -64 288 -26 63 -68 173 -92 243 -36
106 -41 132 -32 150 18 35 91 107 102 100 6 -3 7 -1 3 5 -4 7 6 26 23 44 17
18 39 52 48 76 23 60 10 93 -42 110 -52 17 -127 5 -325 -53 -85 -25 -161 -45
-169 -45 -8 0 -23 7 -33 17 -14 13 -18 31 -17 92 0 101 13 172 32 186 21 15
202 55 292 65 98 11 305 3 400 -14z m-808 -193 c-8 -121 2 -169 44 -207 30
-27 36 -28 98 -23 36 3 116 21 178 40 114 37 258 69 267 59 8 -7 -30 -58 -97
-130 -71 -77 -91 -120 -82 -179 7 -51 53 -187 88 -263 77 -169 107 -261 107
-333 0 -45 -4 -53 -36 -81 -50 -43 -129 -121 -191 -189 -69 -77 -101 -89 -206
-81 -101 8 -170 -5 -257 -50 -71 -37 -93 -36 -138 7 -61 57 -78 155 -47 282
34 141 9 208 -97 265 -57 30 -111 40 -276 49 -84 5 -155 11 -158 13 -8 9 36
128 86 233 114 237 268 415 488 564 64 43 208 121 224 121 7 0 9 -32 5 -97z
m1272 26 c97 -55 203 -138 301 -238 140 -141 231 -276 305 -455 36 -87 85
-255 85 -291 0 -15 -20 -30 -73 -58 -39 -20 -83 -37 -96 -37 -35 0 -107 79
-122 132 -9 36 -8 64 11 171 21 123 21 130 5 173 -21 56 -84 110 -150 130 -27
8 -131 21 -230 28 -197 15 -252 30 -285 76 -37 52 -21 98 80 240 37 52 75 110
84 128 9 17 19 32 23 32 3 0 31 -14 62 -31z m225 -1614 c27 -8 72 -28 100 -44
28 -15 84 -40 123 -54 40 -15 91 -36 113 -47 l40 -20 -24 -53 c-49 -112 -151
-259 -251 -365 -151 -159 -303 -266 -489 -343 -77 -32 -79 -32 -93 -13 -30 40
-7 96 110 254 50 68 69 106 97 190 33 98 35 114 35 230 0 69 -4 148 -8 175 -8
46 -7 51 15 64 63 38 157 49 232 26z m-1914 -450 c64 -30 121 -55 129 -55 7 0
42 -14 77 -31 72 -34 89 -57 105 -147 14 -74 35 -110 81 -133 56 -29 110 -24
284 27 164 47 264 65 264 47 0 -6 -30 -45 -67 -88 -92 -105 -113 -135 -113
-162 0 -30 -20 -30 -140 2 -253 68 -467 193 -653 381 -84 86 -167 191 -167
213 0 25 79 3 200 -54z"/>
</g>
</svg>
